<?xml version="1.0" encoding="UTF-8" standalone="no"?>
<svg
   xmlns:dc="http://purl.org/dc/elements/1.1/"
   xmlns:cc="http://creativecommons.org/ns#"
   xmlns:rdf="http://www.w3.org/1999/02/22-rdf-syntax-ns#"
   xmlns:svg="http://www.w3.org/2000/svg"
   xmlns="http://www.w3.org/2000/svg"
   id="svg8"
   version="1.1"
   viewBox="0 0 1024 768"
   height="768mm"
   width="1024mm">
  <defs
     id="defs2" />
  <metadata
     id="metadata5">
    <rdf:RDF>
      <cc:Work
         rdf:about="">
        <dc:format>image/svg+xml</dc:format>
        <dc:type
           rdf:resource="http://purl.org/dc/dcmitype/StillImage" />
        <dc:title></dc:title>
      </cc:Work>
    </rdf:RDF>
  </metadata>
  <g
     transform="translate(0,471)"
     id="layer1">
    <path
       id="path4524"
       d="m 409.66406,-464.74023 c -78.72603,-0.23854 -163.61621,9.07845 -242.00195,60.33593 -89.986857,56.32332 -130.190252,152.40059 -147.619141,239.56446 l -0.134766,0.67578 -0.119141,0.67968 C 4.0348023,-74.539256 -5.2121002,43.511988 71.224609,135.55859 127.60237,208.32902 211.53504,239.0852 287.07422,252.47852 l -2.04688,-0.39649 c 131.89692,27.95376 272.44083,51.8805 416.67188,36.77735 l -4.11914,0.29296 c 76.25714,-2.91664 154.14793,-49.87355 174.09765,-134.55468 l 1.34961,-5.72852 0.25782,-5.87891 C 875.55643,90.941219 849.73573,47.526454 822.79102,19.076172 795.84631,-9.3741102 766.56736,-28.534346 746.38672,-43.751953 l -5.1836,-3.908203 -5.875,-2.759766 c -10.27128,-4.824341 -17.24475,-25.298071 -12.0039,-36.601562 l 1.07812,-2.326172 0.88477,-2.404297 c 2.52577,-6.872938 8.67999,-14.521937 13.29687,-17.619137 4.61689,-3.09721 4.73209,-2.87244 7.30664,-2.17774 l 5.10352,1.37695 5.26172,0.5 c 15.4059,1.46527 42.12506,8.96418 75.5,12.292974 33.31021,3.322338 79.92257,-0.337184 117.34766,-31.306644 42.27254,-34.65138 56.26198,-88.75398 49.75,-134.22656 -6.52291,-45.54894 -30.3488,-87.85417 -71.48047,-114.87305 l -1.83399,-1.20507 -1.91406,-1.07227 c -121.72052,-68.24866 -257.58444,-77.85184 -379.53516,-80.94141 l -0.81445,-0.0195 h -0.81445 c -40.17859,0.0298 -85.36902,-3.57309 -132.79688,-3.71679 z m 2.45313,127.03711 c 40.52634,-0.22195 83.83829,1.65374 128.90429,1.66406 115.6209,2.93381 228.36806,14.0146 318.52735,63.46094 6.46489,4.78461 14.0253,16.62529 15.5664,27.38671 1.60408,11.20111 -0.075,15.6159 -5.26367,19.85157 l -0.21289,0.17578 -0.21289,0.17578 c -4.65534,3.86923 -7.55246,4.99307 -25.26367,3.22656 -17.08399,-1.70394 -41.87315,-8.65098 -72.79688,-11.92383 -37.55227,-7.80942 -75.11487,2.19237 -102.41992,20.50977 -29.02406,19.47059 -49.4222,46.83731 -60.98633,78.30469 l 1.9629,-4.73047 c -33.69233,72.667715 -6.47505,159.872619 64.70312,198.28906 22.69862,17.026025 44.37399,32.581234 57.4082,46.34375 10.8715,11.47896 14.96981,18.30069 16.01758,26.09375 -7.51917,16.87783 -31.16722,32.19811 -55.24805,33.11914 l -2.0664,0.0801 -2.05469,0.21484 C 566.74015,177.30817 439.0734,156.95188 310.94531,129.79688 l -1.02148,-0.21485 -1.02539,-0.18359 C 250.16133,118.98417 198.62344,96.540011 169.39258,58.251953 l -0.84375,-1.105469 -0.89258,-1.066406 C 129.80977,10.83031 129.26214,-64.23412 142.75977,-140.94141 c 13.66107,-67.80512 42.48088,-127.11771 91.40429,-157.63867 l 0.65625,-0.4082 0.64453,-0.42578 c 47.87076,-31.53366 108.33326,-37.91491 176.65235,-38.28906 z"
       style="color:#000000;font-style:normal;font-variant:normal;font-weight:normal;font-stretch:normal;font-size:medium;line-height:normal;font-family:sans-serif;font-variant-ligatures:normal;font-variant-position:normal;font-variant-caps:normal;font-variant-numeric:normal;font-variant-alternates:normal;font-feature-settings:normal;text-indent:0;text-align:start;text-decoration:none;text-decoration-line:none;text-decoration-style:solid;text-decoration-color:#000000;letter-spacing:normal;word-spacing:normal;text-transform:none;writing-mode:lr-tb;direction:ltr;text-orientation:mixed;dominant-baseline:auto;baseline-shift:baseline;text-anchor:start;white-space:normal;shape-padding:0;clip-rule:nonzero;display:inline;overflow:visible;visibility:visible;opacity:1;isolation:auto;mix-blend-mode:normal;color-interpolation:sRGB;color-interpolation-filters:linearRGB;solid-color:#000000;solid-opacity:1;vector-effect:none;fill:#6b6b6b;fill-opacity:1;fill-rule:nonzero;stroke:none;stroke-width:125;stroke-linecap:butt;stroke-linejoin:miter;stroke-miterlimit:4;stroke-dasharray:none;stroke-dashoffset:0;stroke-opacity:1;color-rendering:auto;image-rendering:auto;shape-rendering:auto;text-rendering:auto;enable-background:accumulate" />
  </g>
</svg>
